# xmcd
#
# Track frame offsets: 
#        150
#        19883
#        41421
#        63393
#        85275
#        104226
#        136329
#        155285
#        173124
#        187108
#        209074
#        226716
#
# Disc length: 3270 seconds
#
# Revision: 0
# Processed by: cddbd v1.5.2PL0 Copyright (c) Steve Scherf et al.
# Submitted via: ExactAudioCopy v0.99pb4
#
DISCID=a60cc40c
DTITLE=Laurie Morvan Band - Fire It Up!
DYEAR=2009
DGENRE=Blues
TTITLE0=Nothin' But The Blues
TTITLE1=Come On Over To My BBQ
TTITLE2=Good Girls Bad Girls
TTITLE3=Lay Your Hands
TTITLE4=I Speak The Blues
TTITLE5=Livin' In A Man's World
TTITLE6=Let Me Carry Your Troubles
TTITLE7=You Don't Know About Me
TTITLE8=Skinny Chicks
TTITLE9=Testify
TTITLE10=Ooh Ooh Baby
TTITLE11=Cafe Boogaloo
EXTD=
EXTT0=
EXTT1=
EXTT2=
EXTT3=
EXTT4=
EXTT5=
EXTT6=
EXTT7=
EXTT8=
EXTT9=
EXTT10=
EXTT11=
PLAYORDER=
